<?xml version="1.0" encoding="UTF-8"?>
<svg width="20px" height="18px" viewBox="0 0 20 18" version="1.1" xmlns="http://www.w3.org/2000/svg" xmlns:xlink="http://www.w3.org/1999/xlink">
    <!-- Generator: sketchtool 46.2 (44496) - http://www.bohemiancoding.com/sketch -->
    <title>align-horizontal</title>
    <desc>Created with sketchtool.</desc>
    <defs>
        <path d="M7,8 L4,5 L4,7 L0,7 L0,9 L4,9 L4,11 L7,8 Z M14,11 L14,9 L18,9 L18,7 L14,7 L14,5 L11,8 L14,11 Z M9,16 C9.553,16 10,15.951 10,15.4 L10,0.6 C10,0.047 9.553,0 9,0 C8.448,0 8,0.047 8,0.6 L8,15.4 C8,15.951 8.448,16 9,16 Z" id="path-1"></path>
    </defs>
    <g id="Icons" stroke="none" stroke-width="1" fill="none" fill-rule="evenodd">
        <g id="align-horizontal">
            <g id="align-horizontal-middle" transform="translate(1.000000, 1.000000)">
                <g id="Shape">
                    <use fill="#000000" fill-rule="evenodd" xlink:href="#path-1"></use>
                    <path stroke="#FFFFFF" stroke-width="1" d="M3.5,9.5 L-0.5,9.5 L-0.5,6.5 L3.5,6.5 L3.5,3.79289322 L7.70710678,8 L3.5,12.2071068 L3.5,9.5 Z M14.5,6.5 L18.5,6.5 L18.5,9.5 L14.5,9.5 L14.5,12.2071068 L10.2928932,8 L14.5,3.79289322 L14.5,6.5 Z M9,16.5 C8.03349996,16.5 7.5,16.260883 7.5,15.4 L7.5,0.6 C7.5,-0.262621931 8.03125726,-0.5 9,-0.5 C9.96923996,-0.5 10.5,-0.262680204 10.5,0.6 L10.5,15.4 C10.5,16.2609416 9.96699929,16.5 9,16.5 Z"></path>
                </g>
            </g>
        </g>
    </g>
</svg>