<?xml version="1.0" encoding="UTF-8"?>
<svg width="16px" height="18px" viewBox="0 0 16 18" version="1.1" xmlns="http://www.w3.org/2000/svg" xmlns:xlink="http://www.w3.org/1999/xlink">
    <!-- Generator: sketchtool 46.2 (44496) - http://www.bohemiancoding.com/sketch -->
    <title>slice</title>
    <desc>Created with sketchtool.</desc>
    <defs></defs>
    <g id="Icons" stroke="none" stroke-width="1" fill="none" fill-rule="evenodd">
        <g id="slice">
            <rect id="Path" stroke="#FFFFFF" x="2.5" y="0.5" width="2" height="17"></rect>
            <path d="M3.5,13.9040517 L3.5,1.43965927 L10.143798,11.2894949 L8.18559898,12.6103169 L7.90628636,12.194346 C7.3809075,11.4119169 6.95600631,11.2612474 6.45067894,11.5803582 C5.96280135,11.8884495 5.94335072,12.3249938 6.4971714,13.1460667 L6.77676786,13.5605855 L4.36540633,15.1870694 L3.5,13.9040517 Z M4.5,5.5 C4.5,5.5 4.5,5.5 4.5,5.5 C4.5,5.5 4.5,5.5 4.5,5.5 C4.5,5.5 4.5,5.5 4.5,5.5 C4.5,5.5 4.5,5.5 4.5,5.5 Z M6.5,8.5 C6.5,8.5 6.5,8.5 6.5,8.5 C6.5,8.5 6.5,8.5 6.5,8.5 C6.5,8.5 6.5,8.5 6.5,8.5 C6.5,8.5 6.5,8.5 6.5,8.5 Z" id="Combined-Shape" stroke="#FFFFFF"></path>
            <path d="M4,13.7511864 L4,3.07508558 C7.64984838,8.48620833 9.4496828,11.1545726 9.4496828,11.1545726 C9.4496828,11.1545726 9.07358476,11.4082539 8.32138867,11.9156166 C7.65874879,10.9287693 6.94618869,10.6760962 6.18370836,11.1575974 C5.42122803,11.6390985 5.38754278,12.3951204 6.08265262,13.4256631 L4.50032867,14.4929541 L4,13.7511864 Z M4.5,6 C4.77614237,6 5,5.77614237 5,5.5 C5,5.22385763 4.77614237,5 4.5,5 C4.22385763,5 4,5.22385763 4,5.5 C4,5.77614237 4.22385763,6 4.5,6 Z M6.5,9 C6.77614237,9 7,8.77614237 7,8.5 C7,8.22385763 6.77614237,8 6.5,8 C6.22385763,8 6,8.22385763 6,8.5 C6,8.77614237 6.22385763,9 6.5,9 Z" id="Combined-Shape" fill="#000000"></path>
            <rect id="Path" fill="#FF1818" x="3" y="1" width="1" height="16"></rect>
        </g>
    </g>
</svg>